<svg xmlns="http://www.w3.org/2000/svg" style="display:none">

<defs>
<symbol id="tsh-logo" viewBox="0 0 1920.94 445.27">
  <path fill="#fff2e0" d="M0,5.97v92.62h374.69V5.97H0ZM130.77,439.97h113.15V134.79h-113.15v305.19Z"></path>
  <path fill="#fff2e0" d="M674.94,140.3c-1.13-14.55-6.61-25.86-16.42-33.91-9.82-8.05-24.41-12.08-43.76-12.08-12.58,0-22.85,1.52-30.83,4.55-7.99,3.04-13.92,7.17-17.81,12.4-3.88,5.23-5.9,11.23-6.04,18.01-.28,5.51.75,10.43,3.07,14.73,2.33,4.31,6,8.2,11.02,11.65,5.02,3.47,11.31,6.54,18.86,9.22,7.56,2.68,16.43,5.08,26.6,7.2l36.03,7.84c23.45,5.09,43.66,11.73,60.61,19.92,16.96,8.2,30.91,17.84,41.86,28.93,10.94,11.09,19.07,23.63,24.37,37.62,5.3,13.99,8.02,29.32,8.16,45.99-.14,28.4-7.2,52.46-21.19,72.16-13.99,19.71-34.01,34.76-60.09,45.14-26.07,10.38-57.4,15.58-93.99,15.58s-70.04-5.58-97.81-16.74c-27.76-11.16-49.35-28.22-64.74-51.18-15.4-22.96-23.17-52.31-23.31-88.06h109.15c.7,13.43,4.13,24.69,10.28,33.8,6.14,9.11,14.69,16.04,25.64,20.77,10.95,4.73,23.98,7.1,39.1,7.1,13,0,23.91-1.66,32.74-4.98,8.82-3.32,15.54-7.88,20.13-13.67,4.59-5.79,6.96-12.43,7.1-19.92-.14-7.06-2.4-13.17-6.78-18.33-4.38-5.15-11.37-9.78-20.98-13.88-9.61-4.09-22.47-7.98-38.57-11.65l-43.66-9.54c-38.29-8.33-68.42-22.25-90.39-41.75-21.97-19.5-32.89-46.13-32.74-79.9-.14-27.41,7.21-51.39,22.04-71.95,14.84-20.56,35.39-36.59,61.67-48.11,26.28-11.52,56.44-17.27,90.5-17.27s64.64,5.82,90.07,17.48c25.43,11.66,45.07,28.01,58.92,49.06,13.85,21.05,20.84,45.64,20.98,73.75h-109.78Z"></path>
  <path fill="#fff2e0" d="M983.4,5.97h-114.65v434h114.65M1142.97,5.97v170.53h-123.38v92.62h123.38v170.85h114.65V5.97h-114.65Z"></path>
  <rect fill="#fff2e0" x="1486.92" y="5.97" width="216.98" height="144.69"></rect>
  <polygon fill="#8abddd" points="1920.94 5.97 1920.94 150.66 1776.25 150.66 1776.25 259.12 1631.61 259.12 1631.61 150.66 1703.9 150.66 1703.9 5.97 1920.94 5.97"></polygon>
  <rect fill="#fff2e0" x="1703.92" y="295.31" width="216.99" height="144.66"></rect>
  <rect fill="#8abddd" x="1486.93" y="295.31" width="216.99" height="144.66"></rect>
</symbol>
<symbol id="ic-vazio" viewBox="0 0 24 24" fill="none" stroke="currentColor" stroke-width="1.2" stroke-linejoin="round"><rect x="3.5" y="5.5" width="17" height="13"></rect><path d="M3.5 10.5h17M9 10.5v8"></path></symbol>
<symbol id="ic-dashboard" viewBox="0 0 24 24" fill="none" stroke="currentColor" stroke-width="1.5"><rect x="3.5" y="3.5" width="7" height="7"></rect><rect x="13.5" y="3.5" width="7" height="7"></rect><rect x="3.5" y="13.5" width="7" height="7"></rect><rect x="13.5" y="13.5" width="7" height="7"></rect></symbol>
<symbol id="ic-spe" viewBox="0 0 24 24" fill="none" stroke="currentColor" stroke-width="1.5" stroke-linejoin="round"><path d="M12 3.5 20.5 8 12 12.5 3.5 8Z"></path><path d="M3.5 12 12 16.5 20.5 12"></path><path d="M3.5 16 12 20.5 20.5 16"></path></symbol>
<symbol id="ic-empreendimento" viewBox="0 0 24 24" fill="none" stroke="currentColor" stroke-width="1.5"><rect x="3.5" y="8.5" width="7" height="12"></rect><rect x="13.5" y="3.5" width="7" height="17"></rect><path d="M6 12h2M6 16h2M16 8h2M16 12h2M16 16h2"></path></symbol>
<symbol id="ic-cliente" viewBox="0 0 24 24" fill="none" stroke="currentColor" stroke-width="1.5"><circle cx="12" cy="8" r="4"></circle><path d="M4.5 20.5c0-4 3.4-6 7.5-6s7.5 2 7.5 6"></path></symbol>
<symbol id="ic-corretor" viewBox="0 0 24 24" fill="none" stroke="currentColor" stroke-width="1.5"><circle cx="9" cy="8" r="3.5"></circle><path d="M2.5 20.5c0-3.6 2.9-5.5 6.5-5.5s6.5 1.9 6.5 5.5"></path><path d="M16 5.2a3.5 3.5 0 0 1 0 6.6M18 15.4c2.2.7 3.5 2.4 3.5 5.1"></path></symbol>
<symbol id="ic-permuta" viewBox="0 0 24 24" fill="none" stroke="currentColor" stroke-width="1.5" stroke-linejoin="round"><path d="M3.5 8.5h14l-3.5-3.5M20.5 15.5h-14l3.5 3.5"></path></symbol>
<symbol id="ic-venda" viewBox="0 0 24 24" fill="none" stroke="currentColor" stroke-width="1.5" stroke-linejoin="round"><path d="M12.5 3.5H20.5v8L11 21 3 13Z"></path><circle cx="16.4" cy="7.6" r="1.4"></circle></symbol>
<symbol id="ic-comissao" viewBox="0 0 24 24" fill="none" stroke="currentColor" stroke-width="1.5"><circle cx="7.5" cy="7.5" r="2.5"></circle><circle cx="16.5" cy="16.5" r="2.5"></circle><path d="M19 5 5 19"></path></symbol>
<symbol id="ic-relatorio" viewBox="0 0 24 24" fill="none" stroke="currentColor" stroke-width="1.5"><rect x="3.5" y="3.5" width="17" height="17"></rect><path d="M8 16.5v-4M12 16.5v-7M16 16.5v-2.5"></path></symbol>
<symbol id="ic-inadimplencia" viewBox="0 0 24 24" fill="none" stroke="currentColor" stroke-width="1.5" stroke-linejoin="round"><path d="M12 3.5 21.5 20.5H2.5Z"></path><path d="M12 10v4.5M12 17.6h.01"></path></symbol>
<symbol id="ic-pagar" viewBox="0 0 24 24" fill="none" stroke="currentColor" stroke-width="1.5" stroke-linejoin="round"><path d="M3.5 14.5v6h17v-6"></path><path d="M12 14.5V3.5M8.5 7 12 3.5 15.5 7"></path></symbol>
<symbol id="ic-receber" viewBox="0 0 24 24" fill="none" stroke="currentColor" stroke-width="1.5" stroke-linejoin="round"><path d="M3.5 14.5v6h17v-6"></path><path d="M12 3.5v11M8.5 11 12 14.5 15.5 11"></path></symbol>
<symbol id="ic-fluxo" viewBox="0 0 24 24" fill="none" stroke="currentColor" stroke-width="1.5" stroke-linejoin="round"><path d="M3.5 17.5 9 11l4 3.5 7.5-8"></path><path d="M15.5 6.5h5v5"></path></symbol>
<symbol id="ic-config" viewBox="0 0 24 24" fill="none" stroke="currentColor" stroke-width="1.5"><circle cx="12" cy="12" r="3.5"></circle><path d="M12 2.5v3M12 18.5v3M2.5 12h3M18.5 12h3M5.2 5.2l2.1 2.1M16.7 16.7l2.1 2.1M18.8 5.2l-2.1 2.1M7.3 16.7l-2.1 2.1"></path></symbol>
<symbol id="ic-sair" viewBox="0 0 24 24" fill="none" stroke="currentColor" stroke-width="1.5" stroke-linejoin="round"><path d="M9.5 20.5h-5v-17h5"></path><path d="M13 7.5 17.5 12 13 16.5M17.5 12H8"></path></symbol>
<symbol id="ic-busca" viewBox="0 0 24 24" fill="none" stroke="currentColor" stroke-width="1.5" stroke-linecap="round"><circle cx="10.5" cy="10.5" r="6"></circle><path d="M15 15l5.5 5.5"></path></symbol>
<symbol id="ic-notificacao" viewBox="0 0 24 24" fill="none" stroke="currentColor" stroke-width="1.5" stroke-linejoin="round"><path d="M6.5 10a5.5 5.5 0 0 1 11 0c0 4 1.5 5.5 1.5 5.5H5S6.5 14 6.5 10Z"></path><path d="M10 19a2.2 2.2 0 0 0 4 0"></path></symbol>
<symbol id="ic-mais" viewBox="0 0 24 24" fill="none" stroke="currentColor" stroke-width="1.5" stroke-linecap="round"><path d="M12 4.5v15M4.5 12h15"></path></symbol>
<symbol id="ic-filtro" viewBox="0 0 24 24" fill="none" stroke="currentColor" stroke-width="1.5" stroke-linecap="round"><path d="M3.5 5.5h17M6.5 12h11M10 18.5h4"></path></symbol>
<symbol id="ic-documento" viewBox="0 0 24 24" fill="none" stroke="currentColor" stroke-width="1.5" stroke-linejoin="round"><path d="M6 3.5h7l5 5v12H6Z"></path><path d="M13 3.5v5h5"></path></symbol>
<symbol id="ic-unidade" viewBox="0 0 24 24" fill="none" stroke="currentColor" stroke-width="1.5"><rect x="5.5" y="3.5" width="13" height="17"></rect><circle cx="14.8" cy="12" r="1"></circle></symbol>
<symbol id="ic-viabilidade" viewBox="0 0 24 24" fill="none" stroke="currentColor" stroke-width="1.5" stroke-linecap="round"><rect x="5.5" y="3.5" width="13" height="17"></rect><path d="M8.5 8h7M9 12h.01M12 12h.01M15 12h.01M9 16h.01M12 16h.01M15 16h.01"></path></symbol>
<symbol id="ic-chevron" viewBox="0 0 24 24" fill="none" stroke="currentColor" stroke-width="1.5" stroke-linejoin="round"><path d="M9 5.5 15.5 12 9 18.5"></path></symbol>
<symbol id="ic-download" viewBox="0 0 24 24" fill="none" stroke="currentColor" stroke-width="1.5" stroke-linejoin="round"><path d="M12 3.5v11M8.5 11 12 14.5 15.5 11M4.5 20.5h15"></path></symbol>
</defs>
</svg>